<?xml version="1.0" encoding="UTF-8"?>
<svg version="1.1" xmlns="http://www.w3.org/2000/svg" width="480" height="479">
<path d="M0 0 C3.76614186 1.01431115 6.74780765 2.70668507 9.984375 4.80859375 C10.56058594 5.16888672 11.13679687 5.52917969 11.73046875 5.90039062 C14.12234706 7.41413179 16.22708697 8.86380572 18.234375 10.87109375 C18.34375 14.1875 18.34375 14.1875 17.234375 17.87109375 C14.91890189 20.03904157 12.30105141 21.38289926 9.484375 22.80859375 C8.76765625 23.20626953 8.0509375 23.60394531 7.3125 24.01367188 C0.54769772 27.62612603 0.54769772 27.62612603 -3.765625 26.87109375 C-5.578125 25.05859375 -5.578125 25.05859375 -6.765625 22.87109375 C-6.765625 21.88109375 -6.765625 20.89109375 -6.765625 19.87109375 C-30.195625 19.87109375 -53.625625 19.87109375 -77.765625 19.87109375 C-78.095625 46.93109375 -78.425625 73.99109375 -78.765625 101.87109375 C-75.795625 102.20109375 -72.825625 102.53109375 -69.765625 102.87109375 C-53.33528038 106.24453231 -38.60880168 116.41639181 -28.765625 129.87109375 C-18.06944336 147.53006029 -13.91164809 166.09721069 -18.80078125 186.46484375 C-23.90880204 204.49801838 -34.68679304 219.24745816 -51.1328125 228.52734375 C-68.37771622 237.32889698 -86.47609562 239.93120257 -105.17578125 234.18359375 C-117.22865292 229.7768855 -125.91799014 223.92227849 -134.765625 214.87109375 C-135.35859375 214.31035156 -135.9515625 213.74960937 -136.5625 213.171875 C-148.39826372 201.04976216 -152.28801337 183.06780104 -152.18579102 166.80004883 C-151.67881863 148.68995857 -144.61372161 133.58786399 -131.765625 120.87109375 C-131.10175781 120.17371094 -130.43789062 119.47632813 -129.75390625 118.7578125 C-119.91100675 109.1023968 -104.632018 101.87109375 -90.765625 101.87109375 C-90.78227959 100.19645805 -90.78227959 100.19645805 -90.79927063 98.48799133 C-90.90062183 87.9675957 -90.97557859 77.4472991 -91.02468586 66.92652607 C-91.05078129 61.51762358 -91.0861789 56.10911514 -91.14282227 50.70043945 C-91.19714315 45.48087376 -91.22704594 40.26168712 -91.24001122 35.04186058 C-91.2492509 33.05030538 -91.26729401 31.05877095 -91.29427528 29.06737709 C-91.33056659 26.27794164 -91.33557032 23.49007295 -91.33325195 20.70043945 C-91.35122833 19.87684937 -91.36920471 19.05325928 -91.38772583 18.20471191 C-91.35120399 14.14436673 -91.05673804 12.30011523 -88.71887207 8.85473633 C-85.05480708 6.39365023 -82.21338354 6.19703153 -77.94604492 6.3034668 C-77.17478271 6.30273666 -76.40352051 6.30200653 -75.60888672 6.30125427 C-73.07056278 6.30472579 -70.53409533 6.34356313 -67.99609375 6.3828125 C-66.2320506 6.39214225 -64.46799447 6.3992576 -62.70393372 6.4042511 C-58.06922404 6.42330827 -53.43530242 6.47239766 -48.80090332 6.527771 C-44.06854919 6.57899134 -39.33606727 6.60177107 -34.60351562 6.62695312 C-25.32387321 6.68051794 -16.04481473 6.76581498 -6.765625 6.87109375 C-6.6109375 5.69546875 -6.6109375 5.69546875 -6.453125 4.49609375 C-5.4555761 0.68727067 -3.87678644 -0.18069767 0 0 Z " fill="#D7062C" transform="translate(152.765625,51.12890625)"/>
<path d="M0 0 C13.18710929 13.01253231 19.48477011 29.99590944 19.6784668 48.34643555 C19.71893053 58.63717121 18.33812727 67.09111317 14.3034668 76.53393555 C13.8806543 77.52393555 13.4578418 78.51393555 13.0222168 79.53393555 C5.4860353 94.9568186 -8.65545183 106.31591468 -24.29362488 112.74945068 C-27.47598333 113.78840502 -30.69071619 114.45022225 -33.96728516 115.13256836 C-35.22757034 115.39676575 -36.48785553 115.66096313 -37.78633118 115.9331665 C-39.22688118 116.23054718 -39.22688118 116.23054718 -40.6965332 116.53393555 C-40.70017883 117.65257996 -40.70382446 118.77122437 -40.70758057 119.92376709 C-40.74450157 130.45945524 -40.80224249 140.99485033 -40.88043594 151.5303154 C-40.91996643 156.94689914 -40.95212759 162.36331894 -40.9675293 167.7800293 C-40.98265915 173.00625178 -41.01703936 178.23202375 -41.06484222 183.45804596 C-41.07969395 185.45311826 -41.08757638 187.44825486 -41.08841705 189.44338226 C-41.09077706 192.2354501 -41.11777834 195.02626309 -41.15063477 197.81811523 C-41.14308922 199.05889328 -41.14308922 199.05889328 -41.13539124 200.32473755 C-41.19770771 203.74125016 -41.43725607 206.11212678 -43.24328613 209.05029297 C-46.62953693 211.0981853 -49.65473553 211.06329955 -53.49438477 210.98803711 C-54.27525452 210.98862122 -55.05612427 210.98920532 -55.86065674 210.98980713 C-58.43661255 210.98702477 -61.01140505 210.9559269 -63.5871582 210.92456055 C-65.3750546 210.91709867 -67.16295919 210.91140548 -68.9508667 210.90740967 C-73.65285894 210.89214912 -78.35435566 210.85286378 -83.05615234 210.80859375 C-87.85548194 210.76765006 -92.65489174 210.74940059 -97.4543457 210.72924805 C-106.86862572 210.68636986 -116.28253823 210.61811349 -125.6965332 210.53393555 C-125.81770508 211.49162842 -125.93887695 212.44932129 -126.0637207 213.43603516 C-126.6965332 216.53393555 -126.6965332 216.53393555 -128.8215332 218.1003418 C-132.77772413 218.69699559 -135.31248188 217.31169423 -138.6965332 215.47143555 C-139.60145508 215.01994141 -139.60145508 215.01994141 -140.5246582 214.55932617 C-144.60120551 212.43686295 -147.90468305 210.2036917 -150.6965332 206.53393555 C-150.89575195 203.48706055 -150.89575195 203.48706055 -149.6965332 200.53393555 C-146.96606445 198.26831055 -146.96606445 198.26831055 -143.5090332 196.28393555 C-141.81713867 195.28620117 -141.81713867 195.28620117 -140.09106445 194.26831055 C-132.16197375 190.21708354 -132.16197375 190.21708354 -128.3840332 191.03393555 C-126.6965332 192.53393555 -126.6965332 192.53393555 -125.6965332 198.53393555 C-101.9365332 198.53393555 -78.1765332 198.53393555 -53.6965332 198.53393555 C-54.0265332 171.47393555 -54.3565332 144.41393555 -54.6965332 116.53393555 C-59.3165332 115.54393555 -63.9365332 114.55393555 -68.6965332 113.53393555 C-87.51606961 106.88056409 -101.008999 94.31120462 -109.6965332 76.53393555 C-116.82517506 60.49449138 -118.20847367 41.9812999 -111.88208008 25.39916992 C-108.29458845 17.08929017 -103.91420171 9.16361823 -97.6965332 2.53393555 C-96.54797852 1.30610352 -96.54797852 1.30610352 -95.3762207 0.0534668 C-68.85238318 -26.11408037 -26.83105918 -24.95579344 0 0 Z " fill="#D7052B" transform="translate(459.696533203125,210.466064453125)"/>
<path d="M0 0 C4.34151529 3.32199376 8.18716858 7.09360217 12 11 C12.59296875 11.57234375 13.1859375 12.1446875 13.796875 12.734375 C21.51041626 20.77968148 25.70608314 31.12553939 28.12060547 41.79345703 C28.30268051 42.58309341 28.48475555 43.3727298 28.67234802 44.18629456 C29.11846594 46.12337827 29.55972034 48.06158097 30 50 C31.1333931 50.00364563 32.26678619 50.00729126 33.43452454 50.01104736 C44.1029677 50.04794945 54.77112093 50.10566944 65.43934345 50.18390274 C70.92433705 50.22345322 76.40916829 50.25560449 81.89428711 50.27099609 C87.1853414 50.28611288 92.47594954 50.32046948 97.76680565 50.36830902 C99.78782466 50.38317434 101.80890735 50.39104395 103.82998085 50.39188385 C106.65577689 50.39423981 109.48032606 50.42120795 112.3059082 50.45410156 C113.14603958 50.4490712 113.98617096 50.44404083 114.85176086 50.43885803 C120.39743856 50.53908506 120.39743856 50.53908506 123.02209473 52.54675293 C124.38575664 55.96773826 124.39385352 59.17379802 124.34057617 62.79785156 C124.34101425 63.57872131 124.34145233 64.35959106 124.34190369 65.16412354 C124.33981708 67.73988018 124.3164925 70.31498235 124.29296875 72.890625 C124.28737233 74.67852421 124.28310245 76.46642803 124.28010559 78.2543335 C124.26866043 82.95622496 124.23919607 87.65783768 124.20599365 92.35961914 C124.1752857 97.15897857 124.1615987 101.95838311 124.14648438 106.7578125 C124.11432606 116.17199736 124.06313365 125.58597548 124 135 C125.98 135.33 127.96 135.66 130 136 C131.20630234 141.03163543 131.0669849 143.92419637 128.43945312 148.4453125 C127.88161133 149.33863281 127.88161133 149.33863281 127.3125 150.25 C126.95994141 150.86101562 126.60738281 151.47203125 126.24414062 152.1015625 C122.46388697 158.43193243 122.46388697 158.43193243 119 160 C115.73118897 159.63969281 113.80954697 158.96478638 111.66064453 156.40380859 C110.34490645 154.38010992 109.19248328 152.32022475 108.0625 150.1875 C107.65193359 149.47529297 107.24136719 148.76308594 106.81835938 148.02929688 C105.06840395 144.83924322 103.9664817 142.79903302 104.12109375 139.11328125 C105 137 105 137 107 135 C108.65 135 110.3 135 112 135 C112 111.24 112 87.48 112 63 C84.61 63 57.22 63 29 63 C28.67 66.3 28.34 69.6 28 73 C23.94218382 90.75839986 12.59538484 105.05000969 -2.41015625 114.98828125 C-17.55654653 123.94481544 -35.95640675 126.69930414 -53.20703125 123.31640625 C-71.54749906 118.35562876 -86.51498243 107.57622965 -96.625 91.5 C-106.00955442 74.82339316 -108.18948043 56.4097165 -103.375 37.875 C-99.65591687 26.06457832 -93.77765701 16.67333851 -85 8 C-84.31292969 7.29101562 -83.62585938 6.58203125 -82.91796875 5.8515625 C-60.74757685 -15.6195777 -25.21250516 -16.06853322 0 0 Z " fill="#D7052A" transform="translate(289,11)"/>
<path d="M0 0 C4.25670063 2.33221529 5.76835477 5.28365792 7.99609375 9.48828125 C8.40666016 10.20048828 8.81722656 10.91269531 9.24023438 11.64648438 C10.9901898 14.83653803 12.09211205 16.87674823 11.9375 20.5625 C11.05859375 22.67578125 11.05859375 22.67578125 9.05859375 24.67578125 C7.73859375 25.00578125 6.41859375 25.33578125 5.05859375 25.67578125 C4.72859375 49.10578125 4.39859375 72.53578125 4.05859375 96.67578125 C31.44859375 96.67578125 58.83859375 96.67578125 87.05859375 96.67578125 C87.38859375 93.04578125 87.71859375 89.41578125 88.05859375 85.67578125 C92.97643267 67.78738709 104.44986103 53.48752069 120.05859375 43.67578125 C136.41719098 34.9375639 156.02694607 32.5748055 174.015625 37.578125 C191.57445731 43.91192716 205.78839684 55.08390172 214.43359375 71.80078125 C215.33560031 73.74682303 216.21333814 75.70442704 217.05859375 77.67578125 C217.37570312 78.41183594 217.6928125 79.14789063 218.01953125 79.90625 C224.89260988 98.04165055 222.06548879 116.38414717 214.78125 133.71484375 C207.1109407 149.14439347 192.39564174 161.68947355 176.20117188 167.32177734 C158.57624498 172.91720353 140.90637339 171.68031638 123.94921875 164.19921875 C118.92631606 161.55201328 114.49370815 158.20005067 110.05859375 154.67578125 C109.22070312 154.04800781 108.3828125 153.42023438 107.51953125 152.7734375 C97.09977536 143.89183605 90.80478341 130.90786969 87.890625 117.78125 C87.71196899 116.99890991 87.53331299 116.21656982 87.34924316 115.41052246 C86.91377056 113.50013259 86.48544124 111.58811675 86.05859375 109.67578125 C84.92520065 109.67213562 83.79180756 109.66848999 82.62406921 109.66473389 C71.95562605 109.6278318 61.28747282 109.57011181 50.6192503 109.49187851 C45.1342567 109.45232803 39.64942546 109.42017676 34.16430664 109.40478516 C28.87325235 109.38966837 23.58264421 109.35531177 18.2917881 109.30747223 C16.27076909 109.29260691 14.2496864 109.2847373 12.2286129 109.2838974 C9.40281686 109.28154144 6.57826769 109.2545733 3.75268555 109.22167969 C2.49248848 109.22922523 2.49248848 109.22922523 1.20683289 109.23692322 C-4.33884481 109.13669619 -4.33884481 109.13669619 -6.96350098 107.12902832 C-8.32716289 103.70804299 -8.33525977 100.50198323 -8.28198242 96.87792969 C-8.2824205 96.09705994 -8.28285858 95.31619019 -8.28330994 94.51165771 C-8.28122333 91.93590107 -8.25789875 89.3607989 -8.234375 86.78515625 C-8.22877858 84.99725704 -8.2245087 83.20935322 -8.22151184 81.42144775 C-8.21006668 76.71955629 -8.18060232 72.01794357 -8.1473999 67.31616211 C-8.11669195 62.51680268 -8.10300495 57.71739814 -8.08789062 52.91796875 C-8.05573231 43.50378389 -8.0045399 34.08980577 -7.94140625 24.67578125 C-9.92140625 24.34578125 -11.90140625 24.01578125 -13.94140625 23.67578125 C-15.14770859 18.64414582 -15.00839115 15.75158488 -12.38085938 11.23046875 C-11.82301758 10.33714844 -11.82301758 10.33714844 -11.25390625 9.42578125 C-10.72506836 8.50925781 -10.72506836 8.50925781 -10.18554688 7.57421875 C-5.31281149 -0.5856087 -5.31281149 -0.5856087 0 0 Z " fill="#D7052B" transform="translate(73.94140625,308.32421875)"/>
<path d="M0 0 C0.66 0 1.32 0 2 0 C2.66 3.3 3.32 6.6 4 10 C5.1333931 10.00364563 6.26678619 10.00729126 7.43452454 10.01104736 C18.1029677 10.04794945 28.77112093 10.10566944 39.43934345 10.18390274 C44.92433705 10.22345322 50.40916829 10.25560449 55.89428711 10.27099609 C61.1853414 10.28611288 66.47594954 10.32046948 71.76680565 10.36830902 C73.78782466 10.38317434 75.80890735 10.39104395 77.82998085 10.39188385 C80.65577689 10.39423981 83.48032606 10.42120795 86.3059082 10.45410156 C87.56610527 10.44655602 87.56610527 10.44655602 88.85176086 10.43885803 C94.39743856 10.53908506 94.39743856 10.53908506 97.02209473 12.54675293 C98.38575664 15.96773826 98.39385352 19.17379802 98.34057617 22.79785156 C98.34123329 23.96915619 98.34123329 23.96915619 98.34190369 25.16412354 C98.33981708 27.73988018 98.3164925 30.31498235 98.29296875 32.890625 C98.28737233 34.67852421 98.28310245 36.46642803 98.28010559 38.2543335 C98.26866043 42.95622496 98.23919607 47.65783768 98.20599365 52.35961914 C98.1752857 57.15897857 98.1615987 61.95838311 98.14648438 66.7578125 C98.11432606 76.17199736 98.06313365 85.58597548 98 95 C99.98 95.33 101.96 95.66 104 96 C105.20630234 101.03163543 105.0669849 103.92419637 102.43945312 108.4453125 C102.06755859 109.04085937 101.69566406 109.63640625 101.3125 110.25 C100.95994141 110.86101562 100.60738281 111.47203125 100.24414062 112.1015625 C96.46388697 118.43193243 96.46388697 118.43193243 93 120 C89.73118897 119.63969281 87.80954697 118.96478638 85.66064453 116.40380859 C84.34490645 114.38010992 83.19248328 112.32022475 82.0625 110.1875 C81.44665039 109.11918945 81.44665039 109.11918945 80.81835938 108.02929688 C79.06840395 104.83924322 77.9664817 102.79903302 78.12109375 99.11328125 C79 97 79 97 81 95 C82.65 95 84.3 95 86 95 C86 71.24 86 47.48 86 23 C58.61 23 31.22 23 3 23 C2.67 26.3 2.34 29.6 2 33 C1.02734375 36.6015625 1.02734375 36.6015625 -0.0625 39.625 C-0.42472656 40.64851563 -0.78695313 41.67203125 -1.16015625 42.7265625 C-1.43730469 43.47679687 -1.71445312 44.22703125 -2 45 C-2.94314127 41.58389775 -3.08065117 38.54865136 -3 35 C-1.515 34.505 -1.515 34.505 0 34 C-0.02320313 33.40832031 -0.04640625 32.81664062 -0.0703125 32.20703125 C-0.25744644 24.01323811 -0.25744644 24.01323811 2 20 C2.66 19.67 3.32 19.34 4 19 C4.40729228 16.67843403 4.74438677 14.3431213 5 12 C4.01 12 3.02 12 2 12 C2 11.01 2 10.02 2 9 C1.34 9 0.68 9 0 9 C0 6.03 0 3.06 0 0 Z " fill="#D2072C" transform="translate(315,51)"/>
<path d="M0 0 C4.25670063 2.33221529 5.76835477 5.28365792 7.99609375 9.48828125 C8.40666016 10.20048828 8.81722656 10.91269531 9.24023438 11.64648438 C10.9901898 14.83653803 12.09211205 16.87674823 11.9375 20.5625 C11.05859375 22.67578125 11.05859375 22.67578125 9.05859375 24.67578125 C7.73859375 25.00578125 6.41859375 25.33578125 5.05859375 25.67578125 C4.72859375 49.10578125 4.39859375 72.53578125 4.05859375 96.67578125 C31.44859375 96.67578125 58.83859375 96.67578125 87.05859375 96.67578125 C87.05859375 97.00578125 87.05859375 97.33578125 87.05859375 97.67578125 C59.33859375 97.67578125 31.61859375 97.67578125 3.05859375 97.67578125 C3.03796875 85.67203125 3.01734375 73.66828125 2.99609375 61.30078125 C2.98698975 57.50787598 2.97788574 53.7149707 2.96850586 49.80712891 C2.96398926 45.18237305 2.96398926 45.18237305 2.96315002 43.01864624 C2.96161251 41.50456448 2.95809149 39.99048396 2.95301819 38.47640991 C2.94572463 36.1855862 2.94468688 33.89483744 2.94506836 31.60400391 C2.94284775 30.31160797 2.94062714 29.01921204 2.93833923 27.68765259 C3.05859375 24.67578125 3.05859375 24.67578125 4.05859375 22.67578125 C3.39859375 22.67578125 2.73859375 22.67578125 2.05859375 22.67578125 C2.05859375 23.33578125 2.05859375 23.99578125 2.05859375 24.67578125 C1.06859375 25.00578125 0.07859375 25.33578125 -0.94140625 25.67578125 C-1.60140625 24.35578125 -2.26140625 23.03578125 -2.94140625 21.67578125 C-4.16160195 25.33636836 -4.1176756 28.73017594 -4.14672852 32.54370117 C-4.1617776 33.76344242 -4.1617776 33.76344242 -4.1771307 35.0078249 C-4.20851856 37.64060426 -4.23328806 40.27339868 -4.2578125 42.90625 C-4.27621568 44.53145845 -4.29505234 46.15666205 -4.31433105 47.78186035 C-4.38278037 53.80894323 -4.4428321 59.83611912 -4.50390625 65.86328125 C-4.64828125 79.33140625 -4.79265625 92.79953125 -4.94140625 106.67578125 C25.74859375 107.00578125 56.43859375 107.33578125 88.05859375 107.67578125 C88.55359375 113.61578125 88.55359375 113.61578125 89.05859375 119.67578125 C87.25528842 116.06917059 86.59260272 113.591847 86.05859375 109.67578125 C84.92520065 109.67213562 83.79180756 109.66848999 82.62406921 109.66473389 C71.95562605 109.6278318 61.28747282 109.57011181 50.6192503 109.49187851 C45.1342567 109.45232803 39.64942546 109.42017676 34.16430664 109.40478516 C28.87325235 109.38966837 23.58264421 109.35531177 18.2917881 109.30747223 C16.27076909 109.29260691 14.2496864 109.2847373 12.2286129 109.2838974 C9.40281686 109.28154144 6.57826769 109.2545733 3.75268555 109.22167969 C2.49248848 109.22922523 2.49248848 109.22922523 1.20683289 109.23692322 C-4.33884481 109.13669619 -4.33884481 109.13669619 -6.96350098 107.12902832 C-8.32716289 103.70804299 -8.33525977 100.50198323 -8.28198242 96.87792969 C-8.2824205 96.09705994 -8.28285858 95.31619019 -8.28330994 94.51165771 C-8.28122333 91.93590107 -8.25789875 89.3607989 -8.234375 86.78515625 C-8.22877858 84.99725704 -8.2245087 83.20935322 -8.22151184 81.42144775 C-8.21006668 76.71955629 -8.18060232 72.01794357 -8.1473999 67.31616211 C-8.11669195 62.51680268 -8.10300495 57.71739814 -8.08789062 52.91796875 C-8.05573231 43.50378389 -8.0045399 34.08980577 -7.94140625 24.67578125 C-9.92140625 24.34578125 -11.90140625 24.01578125 -13.94140625 23.67578125 C-15.14770859 18.64414582 -15.00839115 15.75158488 -12.38085938 11.23046875 C-11.82301758 10.33714844 -11.82301758 10.33714844 -11.25390625 9.42578125 C-10.72506836 8.50925781 -10.72506836 8.50925781 -10.18554688 7.57421875 C-5.31281149 -0.5856087 -5.31281149 -0.5856087 0 0 Z " fill="#D82949" transform="translate(73.94140625,308.32421875)"/>
<path d="M0 0 C3.76614186 1.01431115 6.74780765 2.70668507 9.984375 4.80859375 C10.56058594 5.16888672 11.13679688 5.52917969 11.73046875 5.90039062 C14.12234706 7.41413179 16.22708697 8.86380572 18.234375 10.87109375 C18.34375 14.1875 18.34375 14.1875 17.234375 17.87109375 C14.91890189 20.03904157 12.30105141 21.38289926 9.484375 22.80859375 C8.76765625 23.20626953 8.0509375 23.60394531 7.3125 24.01367188 C0.54769772 27.62612603 0.54769772 27.62612603 -3.765625 26.87109375 C-5.578125 25.05859375 -5.578125 25.05859375 -6.765625 22.87109375 C-6.765625 21.88109375 -6.765625 20.89109375 -6.765625 19.87109375 C-30.525625 19.87109375 -54.285625 19.87109375 -78.765625 19.87109375 C-78.765625 19.21109375 -78.765625 18.55109375 -78.765625 17.87109375 C-44.115625 17.37609375 -44.115625 17.37609375 -8.765625 16.87109375 C-8.105625 14.89109375 -7.445625 12.91109375 -6.765625 10.87109375 C-43.395625 10.37609375 -43.395625 10.37609375 -80.765625 9.87109375 C-80.765625 9.54109375 -80.765625 9.21109375 -80.765625 8.87109375 C-82.415625 8.54109375 -84.065625 8.21109375 -85.765625 7.87109375 C-85.765625 7.54109375 -85.765625 7.21109375 -85.765625 6.87109375 C-59.695625 6.87109375 -33.625625 6.87109375 -6.765625 6.87109375 C-6.435625 5.22109375 -6.105625 3.57109375 -5.765625 1.87109375 C-2.765625 -0.12890625 -2.765625 -0.12890625 0 0 Z " fill="#D62C4B" transform="translate(152.765625,51.12890625)"/>
<path d="M0 0 C0.33 0 0.66 0 1 0 C1 25.41 1 50.82 1 77 C2.98 77.33 4.96 77.66 7 78 C8.20630234 83.03163543 8.0669849 85.92419637 5.43945312 90.4453125 C5.06755859 91.04085937 4.69566406 91.63640625 4.3125 92.25 C3.95994141 92.86101562 3.60738281 93.47203125 3.24414062 94.1015625 C-0.53611303 100.43193243 -0.53611303 100.43193243 -4 102 C-7.26881103 101.63969281 -9.19045303 100.96478638 -11.33935547 98.40380859 C-12.65509355 96.38010992 -13.80751672 94.32022475 -14.9375 92.1875 C-15.55334961 91.11918945 -15.55334961 91.11918945 -16.18164062 90.02929688 C-17.93159605 86.83924322 -19.0335183 84.79903302 -18.87890625 81.11328125 C-18 79 -18 79 -16 77 C-14.35 77 -12.7 77 -11 77 C-11 53.24 -11 29.48 -11 5 C-38.39 5 -65.78 5 -94 5 C-94 4.67 -94 4.34 -94 4 C-66.28 4 -38.56 4 -10 4 C-10 28.42 -10 52.84 -10 78 C-11.65 78.33 -13.3 78.66 -15 79 C-14.67 79.99 -14.34 80.98 -14 82 C-12.8553125 81.505 -12.8553125 81.505 -11.6875 81 C-9 80 -9 80 -6 80 C-5.67 80.66 -5.34 81.32 -5 82 C-4.01 81.67 -3.02 81.34 -2 81 C-0.81553116 77.44659348 -0.82431247 74.19917553 -0.79467773 70.49926758 C-0.78477814 69.73805099 -0.77487854 68.97683441 -0.76467896 68.19255066 C-0.73309271 65.67657582 -0.70831791 63.16058211 -0.68359375 60.64453125 C-0.66302174 58.90003468 -0.6420252 57.15554307 -0.62062073 55.41105652 C-0.56542558 50.81946833 -0.51600501 46.22783535 -0.46777344 41.63616943 C-0.41753976 36.95076511 -0.36186343 32.26542583 -0.30664062 27.58007812 C-0.19909032 18.38677432 -0.09763838 9.19341404 0 0 Z " fill="#DA4D6A" transform="translate(412,69)"/>
<path d="M0 0 C0.66 0.33 1.32 0.66 2 1 C2.24670822 10.17036492 2.46593106 19.34085724 2.65021229 28.51269054 C2.73664571 32.77169774 2.83248861 37.03005671 2.94995117 41.28833008 C3.06299001 45.39885469 3.15116019 49.50923396 3.22220421 53.6206913 C3.25364065 55.18814644 3.29399312 56.75544926 3.34345436 58.32243919 C3.41129135 60.52015043 3.44721311 62.71627106 3.47583008 64.91479492 C3.50469803 66.16499924 3.53356598 67.41520355 3.56330872 68.70329285 C2.8498828 72.87854572 1.19780523 74.33694335 -2 77 C-2.33 76.01 -2.66 75.02 -3 74 C-5.3431213 74.25561323 -7.67843403 74.59270772 -10 75 C-10.495 75.99 -10.495 75.99 -11 77 C-11.66 76.34 -12.32 75.68 -13 75 C-10.94766315 72.7522025 -9.99332739 71.9977758 -7 71 C-6.67 48.56 -6.34 26.12 -6 3 C-4 2 -2 1 0 0 Z " fill="#D80429" transform="translate(409,75)"/>
<path d="M0 0 C0.33 1.98 0.66 3.96 1 6 C23.44 6 45.88 6 69 6 C69 6.33 69 6.66 69 7 C46.56 7 24.12 7 1 7 C1 7.66 1 8.32 1 9 C0.01 9 -0.98 9 -2 9 C-2 9.66 -2 10.32 -2 11 C-1.0409375 11.1546875 -1.0409375 11.1546875 -0.0625 11.3125 C0.618125 11.539375 1.29875 11.76625 2 12 C2.33 12.99 2.66 13.98 3 15 C0.69 15.33 -1.62 15.66 -4 16 C-2.35 16.66 -0.7 17.32 1 18 C0.8125 20.875 0.8125 20.875 0 24 C-2.11328125 25.38671875 -2.11328125 25.38671875 -5 26 C-7.58095749 25.11279586 -9.63652429 24.22276617 -12 22.9375 C-12.60328125 22.63650391 -13.2065625 22.33550781 -13.828125 22.02539062 C-17.90467231 19.90292741 -21.20814985 17.66975615 -24 14 C-24.20703125 10.953125 -24.20703125 10.953125 -23 8 C-20.8575874 6.26694657 -19.06632423 5.04143552 -16.6875 3.75 C-16.10548828 3.41226562 -15.52347656 3.07453125 -14.92382812 2.7265625 C-13.29763216 1.79099336 -11.64933541 0.8941452 -10 0 C-9.26910156 -0.42539062 -8.53820312 -0.85078125 -7.78515625 -1.2890625 C-4.8890179 -2.44244802 -2.76320821 -1.13040336 0 0 Z " fill="#DA2948" transform="translate(333,403)"/>
<path d="M0 0 C0.33 0 0.66 0 1 0 C1.09262748 11.66539149 1.16372827 23.33069568 1.20724869 34.99637985 C1.22813499 40.41308316 1.25647193 45.82953511 1.30175781 51.24609375 C1.34517797 56.47212448 1.36912925 61.69791324 1.37950897 66.92411041 C1.3869072 68.91926127 1.40135404 70.9143987 1.42292023 72.90944672 C1.4519032 75.70131686 1.45595813 78.49218363 1.45410156 81.28417969 C1.46848267 82.11136505 1.48286377 82.93855042 1.49768066 83.790802 C1.47300253 87.21414684 1.26421008 89.5685657 -0.54101562 92.51635742 C-3.93092769 94.56168066 -6.95603864 94.52940641 -10.79785156 94.45410156 C-11.57872131 94.45468567 -12.35959106 94.45526978 -13.16412354 94.45587158 C-15.74007935 94.45308923 -18.31487185 94.42199135 -20.890625 94.390625 C-22.6785214 94.38316312 -24.46642599 94.37746994 -26.2543335 94.37347412 C-30.95632574 94.35821357 -35.65782246 94.31892824 -40.35961914 94.2746582 C-45.15894874 94.23371452 -49.95835853 94.21546504 -54.7578125 94.1953125 C-64.17209252 94.15243431 -73.58600503 94.08417794 -83 94 C-82.505 93.01 -82.505 93.01 -82 92 C-57.58 92 -33.16 92 -8 92 C-7.67 91.34 -7.34 90.68 -7 90 C-5.35 90.33 -3.7 90.66 -2 91 C-1.98969254 89.87469376 -1.97938507 88.74938751 -1.96876526 87.58998108 C-1.87120809 77.00932836 -1.76849127 66.42873679 -1.66066074 55.84818363 C-1.60538531 50.40800614 -1.55195806 44.96782332 -1.50268555 39.52758789 C-1.45510998 34.28209524 -1.40276991 29.0366702 -1.34705925 23.79125786 C-1.32660474 21.78530996 -1.30789691 19.77934351 -1.29092598 17.77336311 C-1.26695023 14.97392151 -1.23688675 12.17460897 -1.20532227 9.37524414 C-1.1995668 8.53727295 -1.19381134 7.69930176 -1.18788147 6.8359375 C-1.11405216 1.11405216 -1.11405216 1.11405216 0 0 Z " fill="#C84D68" transform="translate(417,327)"/>
<path d="M0 0 C28.05 0 56.1 0 85 0 C85 0.66 85 1.32 85 2 C57.28 2 29.56 2 1 2 C1 4.31 1 6.62 1 9 C0.54101562 11.26342773 0.54101562 11.26342773 -0.09375 13.18359375 C-0.31933594 13.88291016 -0.54492188 14.58222656 -0.77734375 15.30273438 C-1.01582031 16.00720703 -1.25429688 16.71167969 -1.5 17.4375 C-1.73847656 18.16904297 -1.97695313 18.90058594 -2.22265625 19.65429688 C-2.80596172 21.4392116 -3.40169935 23.22005557 -4 25 C-4.94314127 21.58389775 -5.08065117 18.54865136 -5 15 C-4.01 14.67 -3.02 14.34 -2 14 C-2.02320313 13.40832031 -2.04640625 12.81664063 -2.0703125 12.20703125 C-2.08835937 11.41683594 -2.10640625 10.62664062 -2.125 9.8125 C-2.14820313 9.03519531 -2.17140625 8.25789063 -2.1953125 7.45703125 C-2 5 -2 5 0 0 Z " fill="#B41434" transform="translate(317,71)"/>
<path d="M0 0 C0.33 0 0.66 0 1 0 C1.33 27.06 1.66 54.12 2 82 C32.69 82.33 63.38 82.66 95 83 C95.495 88.94 95.495 88.94 96 95 C94.19669467 91.39338934 93.53400897 88.91606575 93 85 C91.8666069 84.99635437 90.73321381 84.99270874 89.56547546 84.98895264 C78.8970323 84.95205055 68.22887907 84.89433056 57.56065655 84.81609726 C52.07566295 84.77654678 46.59083171 84.74439551 41.10571289 84.72900391 C35.8146586 84.71388712 30.52405046 84.67953052 25.23319435 84.63169098 C23.21217534 84.61682566 21.19109265 84.60895605 19.17001915 84.60811615 C16.34422311 84.60576019 13.51967394 84.57879205 10.6940918 84.54589844 C9.43389473 84.55344398 9.43389473 84.55344398 8.14823914 84.56114197 C2.60431259 84.46094659 2.60431259 84.46094659 -0.02783203 82.45324707 C-1.38709255 79.02317943 -1.34832192 75.82899478 -1.2487793 72.20214844 C-1.23946381 71.42127869 -1.23014832 70.64040894 -1.22055054 69.83587646 C-1.18622968 67.25993062 -1.13032821 64.6849307 -1.07421875 62.109375 C-1.04618058 60.32149253 -1.01949071 58.53358845 -0.99409485 56.7456665 C-0.9236827 52.04360228 -0.83495759 47.34205499 -0.74243164 42.64038086 C-0.65122254 37.84116083 -0.57731318 33.04167794 -0.50195312 28.2421875 C-0.35157808 18.82778678 -0.18185765 9.4138415 0 0 Z " fill="#A82640" transform="translate(67,333)"/>
<path d="M0 0 C0.66 0.66 1.32 1.32 2 2 C1.67028521 5.29714793 1.3773161 6.6226839 -1 9 C-2.32 9.33 -3.64 9.66 -5 10 C-5.33 33.43 -5.66 56.86 -6 81 C21.39 81 48.78 81 77 81 C77 81.33 77 81.66 77 82 C49.28 82 21.56 82 -7 82 C-7 57.91 -7 33.82 -7 9 C-6.01 8.67 -5.02 8.34 -4 8 C-4 7.34 -4 6.68 -4 6 C-2.68 6 -1.36 6 0 6 C0 4.02 0 2.04 0 0 Z " fill="#DE7F97" transform="translate(84,324)"/>
<path d="M0 0 C0.66 0 1.32 0 2 0 C1.25 6.625 1.25 6.625 -1 10 C-3.45833552 10.25699532 -5.65700708 10.31999436 -8.11181641 10.2487793 C-8.84362625 10.23946381 -9.5754361 10.23014832 -10.329422 10.22055054 C-12.75393399 10.18611113 -15.17746074 10.13023108 -17.6015625 10.07421875 C-19.2802011 10.04619336 -20.95886246 10.01950214 -22.63754272 9.99409485 C-27.06017264 9.92355881 -31.4822605 9.83485377 -35.90447998 9.74243164 C-40.41529978 9.65135099 -44.92639577 9.57735941 -49.4375 9.50195312 C-58.29202223 9.35141211 -67.14606594 9.1816859 -76 9 C-76 8.67 -76 8.34 -76 8 C-77.65 7.67 -79.3 7.34 -81 7 C-81 6.67 -81 6.34 -81 6 C-54.93 6 -28.86 6 -2 6 C-1.67 4.35 -1.34 2.7 -1 1 C-0.67 0.67 -0.34 0.34 0 0 Z " fill="#E4889B" transform="translate(148,52)"/>
<path d="M0 0 C1.0625 1.875 1.0625 1.875 2 4 C1.67 4.66 1.34 5.32 1 6 C0.34 6 -0.32 6 -1 6 C-1 7.98 -1 9.96 -1 12 C-1.66 12 -2.32 12 -3 12 C-3.66 17.28 -4.32 22.56 -5 28 C-8.6840902 29.22803007 -12.03692035 29.08733412 -15.86791992 29.02172852 C-16.66815079 29.01212097 -17.46838165 29.00251343 -18.29286194 28.99261475 C-20.93882037 28.9596246 -23.58461371 28.9192923 -26.23046875 28.87890625 C-28.06463539 28.85460515 -29.89880814 28.83076158 -31.73298645 28.80735779 C-36.56142134 28.74451587 -41.38974802 28.67544947 -46.21807861 28.60510254 C-51.14468456 28.53442011 -56.07136724 28.46960259 -60.99804688 28.40429688 C-70.66544892 28.27528313 -80.33274683 28.13969592 -90 28 C-90 27.67 -90 27.34 -90 27 C-62.61 27 -35.22 27 -7 27 C-7 24.69 -7 22.38 -7 20 C-6.23046875 16.46484375 -6.23046875 16.46484375 -5.1875 12.9375 C-4.85105469 11.77089844 -4.51460938 10.60429687 -4.16796875 9.40234375 C-3.02998788 6.08735599 -1.64236497 3.09178735 0 0 Z " fill="#B51633" transform="translate(168,379)"/>
<path d="M0 0 C1.32 0 2.64 0 4 0 C4 0.66 4 1.32 4 2 C-13.96225394 11.70932645 -32.12338103 15.68437762 -52.25 10.125 C-55.6305706 9.01188529 -58.02804661 7.98130226 -61 6 C-59.22950311 5.94589313 -57.45853151 5.90715881 -55.6875 5.875 C-54.70136719 5.85179687 -53.71523437 5.82859375 -52.69921875 5.8046875 C-50 6 -50 6 -47 8 C-47 8.66 -47 9.32 -47 10 C-42.68721615 9.86188078 -38.37486047 9.71321891 -34.0625 9.5625 C-32.83080078 9.52318359 -31.59910156 9.48386719 -30.33007812 9.44335938 C-28.5753418 9.38051758 -28.5753418 9.38051758 -26.78515625 9.31640625 C-25.70113525 9.27974854 -24.61711426 9.24309082 -23.50024414 9.20532227 C-21.060737 9.27635735 -21.060737 9.27635735 -20 8 C-18.25825224 7.62593337 -16.50593905 7.30048155 -14.75 7 C-11.15573785 6.37828979 -7.57390955 5.73043407 -4 5 C-3.67 3.68 -3.34 2.36 -3 1 C-2.01 1.33 -1.02 1.66 0 2 C0 1.34 0 0.68 0 0 Z " fill="#C64860" transform="translate(284,123)"/>
<path d="M0 0 C0.66 0 1.32 0 2 0 C2.66 3.3 3.32 6.6 4 10 C34.03 10.33 64.06 10.66 95 11 C91.10375982 13.59749345 87.9079745 13.2250558 83.39770508 13.13525391 C82.51944565 13.12579239 81.64118622 13.11633087 80.73631287 13.10658264 C77.83050842 13.07287824 74.92512831 13.02477017 72.01953125 12.9765625 C70.00600802 12.95039814 67.99247294 12.92513091 65.97892761 12.90072632 C60.67694119 12.83404836 55.3752035 12.75516125 50.07342529 12.67376709 C44.66428176 12.59287343 39.25499222 12.52347687 33.84570312 12.453125 C23.23029372 12.31336261 12.61511153 12.16070713 2 12 C2 11.01 2 10.02 2 9 C1.34 9 0.68 9 0 9 C0 6.03 0 3.06 0 0 Z " fill="#BD243F" transform="translate(315,51)"/>
<path d="M0 0 C0.33 0 0.66 0 1 0 C1 27.06 1 54.12 1 82 C3.97 82.33 6.94 82.66 10 83 C6.23312136 84.88343932 4.97041037 85.22057835 1 85 C-0.55879555 81.88240889 -0.12952133 78.57485514 -0.11352539 75.15380859 C-0.11367142 74.34397018 -0.11381744 73.53413177 -0.1139679 72.69975281 C-0.11326977 70.01595404 -0.10548204 67.33222419 -0.09765625 64.6484375 C-0.09579171 62.79041583 -0.09436798 60.93239367 -0.09336853 59.07437134 C-0.08954615 54.17857512 -0.07971823 49.28280845 -0.06866455 44.38702393 C-0.05844444 39.39343669 -0.05386962 34.39984468 -0.04882812 29.40625 C-0.03809573 19.60415366 -0.02102264 9.80207929 0 0 Z " fill="#BB1E3A" transform="translate(73,71)"/>
<path d="M0 0 C5.02823562 0.49520502 8.58188834 2.23062289 12.75 4.9375 C13.32621094 5.29779297 13.90242187 5.65808594 14.49609375 6.02929688 C16.88797206 7.54303804 18.99271197 8.99271197 21 11 C20.625 14.625 20.625 14.625 20 18 C19.01 18.33 18.02 18.66 17 19 C16.67 17.68 16.34 16.36 16 15 C15.34 15 14.68 15 14 15 C14 14.34 14 13.68 14 13 C13.34 13 12.68 13 12 13 C12 11.68 12 10.36 12 9 C10.54166642 7.37485532 10.54166642 7.37485532 9 6 C9 5.34 9 4.68 9 4 C7.68 4 6.36 4 5 4 C5 3.34 5 2.68 5 2 C3.35 1.67 1.7 1.34 0 1 C0 0.67 0 0.34 0 0 Z M12 15 C12.66 15 13.32 15 14 15 C14 15.66 14 16.32 14 17 C13.34 17 12.68 17 12 17 C12 16.34 12 15.68 12 15 Z " fill="#D22345" transform="translate(150,51)"/>
<path d="M0 0 C-3.12292674 10.97903931 -12.00389727 20.26567735 -21 27 C-21.66 27 -22.32 27 -23 27 C-23 26.34 -23 25.68 -23 25 C-22.34 25 -21.68 25 -21 25 C-21 24.34 -21 23.68 -21 23 C-20.34 23 -19.68 23 -19 23 C-19 22.34 -19 21.68 -19 21 C-18.01 21 -17.02 21 -16 21 C-15.67 19.02 -15.34 17.04 -15 15 C-14.01 15.33 -13.02 15.66 -12 16 C-12 14.35 -12 12.7 -12 11 C-11.01 10.67 -10.02 10.34 -9 10 C-9 9.34 -9 8.68 -9 8 C-7.68 8 -6.36 8 -5 8 C-5.061875 7.236875 -5.12375 6.47375 -5.1875 5.6875 C-5 3 -5 3 -3.625 1.1875 C-2 0 -2 0 0 0 Z " fill="#CF2E4D" transform="translate(312,96)"/>
<path d="M0 0 C-0.33 0.66 -0.66 1.32 -1 2 C-3.475 1.505 -3.475 1.505 -6 1 C-6 0.34 -6 -0.32 -6 -1 C-6.56992676 -1.13365967 -7.13985352 -1.26731934 -7.72705078 -1.4050293 C-10 -2 -10 -2 -12.08154297 -2.72973633 C-19.4034707 -5.25979787 -26.42703443 -5.54326617 -34.125 -5.6875 C-35.98898438 -5.73874023 -35.98898438 -5.73874023 -37.890625 -5.79101562 C-40.92699297 -5.87276399 -43.96309868 -5.94215122 -47 -6 C-47 -6.33 -47 -6.66 -47 -7 C-30.61074623 -10.1013511 -14.84911417 -7.42455709 0 0 Z " fill="#CF778F" transform="translate(284,8)"/>
<path d="M0 0 C0.33 0 0.66 0 1 0 C1.04241723 2.33294775 1.04092937 4.66702567 1 7 C0.67 7.33 0.34 7.66 0 8 C-0.36760731 10.32817964 -0.70241581 12.6618385 -1 15 C-1.66 15 -2.32 15 -3 15 C-3 24.57 -3 34.14 -3 44 C-3.33 44 -3.66 44 -4 44 C-6.8364957 29.95588713 -6.51276057 13.02552113 0 0 Z " fill="#C64760" transform="translate(6,193)"/>
<path d="M0 0 C4.75 0.875 4.75 0.875 7 2 C5.46781315 5.63061667 3.2816856 7.9863773 0.5 10.75 C-0.69109375 11.94882812 -0.69109375 11.94882812 -1.90625 13.171875 C-4 15 -4 15 -6 15 C-3.45454545 7.18181818 -3.45454545 7.18181818 -2 4 C-1.34 3.67 -0.68 3.34 0 3 C0 2.01 0 1.02 0 0 Z " fill="#CF1C3E" transform="translate(274,450)"/>
<path d="M0 0 C0.33 0 0.66 0 1 0 C3.18452341 11.74181335 1.88984464 22.52662873 -1 34 C-1.33 34 -1.66 34 -2 34 C-1.86034706 29.64561223 -1.71217758 25.29155381 -1.5625 20.9375 C-1.52318359 19.70837891 -1.48386719 18.47925781 -1.44335938 17.21289062 C-1.23994142 11.40765506 -1.01223898 5.7246793 0 0 Z " fill="#CB5D74" transform="translate(134,207)"/>
<path d="M0 0 C0.33 0 0.66 0 1 0 C1.33 9.24 1.66 18.48 2 28 C2.66 28 3.32 28 4 28 C4.33692785 29.60341555 4.66941093 31.20776555 5 32.8125 C5.185625 33.70582031 5.37125 34.59914063 5.5625 35.51953125 C6 38 6 38 6 41 C-1.2744606 32.32347855 -1.40135043 18.80558839 -1 8 C-0.75455929 5.30861568 -0.40361091 2.67392225 0 0 Z " fill="#CC7C92" transform="translate(345,246)"/>
<path d="M0 0 C4.67803734 4.67803734 4.95390866 14.61174057 5 21 C4.52618562 25.04417323 3.82862511 29.0143817 3 33 C2.67 33 2.34 33 2 33 C2 25.41 2 17.82 2 10 C1.34 10 0.68 10 0 10 C0 6.7 0 3.4 0 0 Z " fill="#BC2E4A" transform="translate(291,389)"/>
<path d="M0 0 C-3.30829571 7.43167876 -10.83450332 11.70182841 -18 15 C-18.66 15 -19.32 15 -20 15 C-19.67 14.01 -19.34 13.02 -19 12 C-18.01 12 -17.02 12 -16 12 C-16 11.34 -16 10.68 -16 10 C-14.68 10 -13.36 10 -12 10 C-11.67 9.01 -11.34 8.02 -11 7 C-9.68 7 -8.36 7 -7 7 C-7.33 5.68 -7.66 4.36 -8 3 C-7.01 3 -6.02 3 -5 3 C-5 2.34 -5 1.68 -5 1 C-2 0 -2 0 0 0 Z " fill="#CE4963" transform="translate(460,305)"/>
<path d="M0 0 C0 0.33 0 0.66 0 1 C-1.77074917 1.02705729 -3.54161711 1.04642195 -5.3125 1.0625 C-6.29863281 1.07410156 -7.28476562 1.08570313 -8.30078125 1.09765625 C-11 1 -11 1 -14 0 C-14 0.66 -14 1.32 -14 2 C-14.66 2 -15.32 2 -16 2 C-16 1.01 -16 0.02 -16 -1 C-21.28 -1 -26.56 -1 -32 -1 C-32 -1.33 -32 -1.66 -32 -2 C-21.25914988 -3.60865267 -10.42371166 -3.1271135 0 0 Z " fill="#CF5369" transform="translate(432,194)"/>
<path d="M0 0 C3.34608023 3.02532308 5.30159994 6.03571006 7.3125 10.0625 C7.84488281 11.10535156 8.37726563 12.14820313 8.92578125 13.22265625 C10 16 10 16 9 19 C8.67 17.68 8.34 16.36 8 15 C7.34 15 6.68 15 6 15 C6 14.01 6 13.02 6 12 C4.35 12 2.7 12 1 12 C1.33 11.01 1.66 10.02 2 9 C1.68947314 6.69663375 1.68947314 6.69663375 1.0625 4.3125 C0.86785156 3.50425781 0.67320312 2.69601562 0.47265625 1.86328125 C0.31667969 1.24839844 0.16070312 0.63351562 0 0 Z " fill="#CD425D" transform="translate(281,370)"/>
<path d="M0 0 C0.33 0 0.66 0 1 0 C0.65259661 7.85131668 -1.28451906 14.64925625 -4 22 C-4.94314127 18.58389775 -5.08065117 15.54865136 -5 12 C-4.01 11.67 -3.02 11.34 -2 11 C-2.02320313 10.37351562 -2.04640625 9.74703125 -2.0703125 9.1015625 C-2.08835937 8.28429687 -2.10640625 7.46703125 -2.125 6.625 C-2.14820313 5.81289062 -2.17140625 5.00078125 -2.1953125 4.1640625 C-2 2 -2 2 0 0 Z " fill="#C73957" transform="translate(317,74)"/>
<path d="M0 0 C0.33 0 0.66 0 1 0 C1 4.29 1 8.58 1 13 C7.6 13.33 14.2 13.66 21 14 C21 14.33 21 14.66 21 15 C17.72946483 15.11608726 14.4594582 15.18720711 11.1875 15.25 C10.25873047 15.28351563 9.32996094 15.31703125 8.37304688 15.3515625 C7.0340332 15.37089844 7.0340332 15.37089844 5.66796875 15.390625 C4.84578857 15.41157227 4.0236084 15.43251953 3.17651367 15.45410156 C1 15 1 15 -0.80737305 13.12402344 C-2 11 -2 11 -1.75 8.625 C-1.5025 7.75875 -1.255 6.8925 -1 6 C-0.66055205 4.00102872 -0.32578384 2.00124361 0 0 Z " fill="#AF2D46" transform="translate(68,402)"/>
<path d="M0 0 C1.32 0 2.64 0 4 0 C4 0.66 4 1.32 4 2 C4.9590625 2.1546875 4.9590625 2.1546875 5.9375 2.3125 C6.618125 2.539375 7.29875 2.76625 8 3 C8.33 3.99 8.66 4.98 9 6 C10.86022072 7.23277127 10.86022072 7.23277127 13.0625 8.1875 C13.79597656 8.53167969 14.52945312 8.87585938 15.28515625 9.23046875 C15.85105469 9.48441406 16.41695313 9.73835938 17 10 C17 10.66 17 11.32 17 12 C17.99 12 18.98 12 20 12 C19.67 12.66 19.34 13.32 19 14 C11.77403295 10.71546952 4.48789676 6.73184513 0 0 Z " fill="#CA435E" transform="translate(365,307)"/>
<path d="M0 0 C1.0625 1.875 1.0625 1.875 2 4 C1.67 4.66 1.34 5.32 1 6 C0.34 6 -0.32 6 -1 6 C-1 7.98 -1 9.96 -1 12 C-1.66 12 -2.32 12 -3 12 C-3.12117187 12.71027344 -3.24234375 13.42054688 -3.3671875 14.15234375 C-3.53476563 15.07144531 -3.70234375 15.99054688 -3.875 16.9375 C-4.03742188 17.85402344 -4.19984375 18.77054687 -4.3671875 19.71484375 C-4.68042969 20.84599609 -4.68042969 20.84599609 -5 22 C-5.66 22.33 -6.32 22.66 -7 23 C-5.90612562 14.70614646 -3.47288089 7.59527005 0 0 Z " fill="#CB506A" transform="translate(168,379)"/>
<path d="M0 0 C2.97 0.33 5.94 0.66 9 1 C9 3.31 9 5.62 9 8 C6 8 6 8 4.39453125 6.50390625 C3.61142578 5.54291016 3.61142578 5.54291016 2.8125 4.5625 C2.28269531 3.92441406 1.75289062 3.28632813 1.20703125 2.62890625 C0 1 0 1 0 0 Z " fill="#CF0B30" transform="translate(13,259)"/>
<path d="M0 0 C0.99 0 1.98 0 3 0 C1.63044968 3.99452176 -0.0926199 6.92159754 -3 10 C-5 10.9375 -5 10.9375 -7 11 C-9.25 10.0625 -9.25 10.0625 -11 9 C-8.64561267 7.57055055 -7.51967567 6.91338739 -4.75 7.375 C-4.1725 7.58125 -3.595 7.7875 -3 8 C-3.66 6.68 -4.32 5.36 -5 4 C-4.34 3.67 -3.68 3.34 -3 3 C-2.01 3.33 -1.02 3.66 0 4 C0 2.68 0 1.36 0 0 Z " fill="#CD3F5A" transform="translate(413,160)"/>
<path d="M0 0 C1.125 3.75 1.125 3.75 0 6 C0.66 6 1.32 6 2 6 C1.67 7.32 1.34 8.64 1 10 C0.67 9.67 0.34 9.34 0 9 C-0.33 11.64 -0.66 14.28 -1 17 C-1.99 16.34 -2.98 15.68 -4 15 C-3.50341703 9.33895411 -2.45489316 5.12325529 0 0 Z " fill="#CE405A" transform="translate(350,231)"/>
<path d="M0 0 C2.875 1.5 2.875 1.5 4.25 4.125 C4.45625 4.90875 4.6625 5.6925 4.875 6.5 C4.215 7.16 3.555 7.82 2.875 8.5 C2.66875 7.695625 2.4625 6.89125 2.25 6.0625 C1.79625 5.216875 1.3425 4.37125 0.875 3.5 C-2.17772465 2.60169161 -2.17772465 2.60169161 -5.125 2.5 C-5.785 4.48 -6.445 6.46 -7.125 8.5 C-7.785 8.17 -8.445 7.84 -9.125 7.5 C-8.21916548 4.70701022 -7.35369279 2.75319559 -5.375 0.5625 C-3.125 -0.5 -3.125 -0.5 0 0 Z " fill="#C94D67" transform="translate(74.125,308.5)"/>
<path d="M0 0 C0.33 0.99 0.66 1.98 1 3 C2.65 3 4.3 3 6 3 C3.22719294 6.08089673 0.93673644 7.68775452 -3 9 C-3.66 8.34 -4.32 7.68 -5 7 C-4.01 7 -3.02 7 -2 7 C-2.226875 6.401875 -2.45375 5.80375 -2.6875 5.1875 C-2.790625 4.465625 -2.89375 3.74375 -3 3 C-1.5625 1.25 -1.5625 1.25 0 0 Z " fill="#D02A48" transform="translate(101,272)"/>
<path d="M0 0 C7.8859085 1.16892891 14.74818885 3.73543897 22 7 C21.67 7.66 21.34 8.32 21 9 C18.525 8.505 18.525 8.505 16 8 C16 7.34 16 6.68 16 6 C15.46890625 5.87753906 14.9378125 5.75507812 14.390625 5.62890625 C11.46272452 4.85865792 8.61888994 3.90419117 5.75 2.9375 C4.67234375 2.57527344 3.5946875 2.21304687 2.484375 1.83984375 C1.66453125 1.56269531 0.8446875 1.28554688 0 1 C0 0.67 0 0.34 0 0 Z " fill="#CC5A71" transform="translate(262,1)"/>
<path d="M0 0 C0.6875 1.8125 0.6875 1.8125 1 4 C-0.84159673 6.48615558 -2.00470711 7.00156904 -5 8 C-7.36522558 7.07796291 -9.70401807 6.08301035 -12 5 C-8.92677456 4.08941469 -6.19902639 3.91113816 -3 4 C-3 3.34 -3 2.68 -3 2 C-2.01 1.34 -1.02 0.68 0 0 Z " fill="#CC4564" transform="translate(333,421)"/>
<path d="M0 0 C3.18283344 1.43048694 5.57915658 3.19017243 8.1875 5.5 C8.88230469 6.1084375 9.57710937 6.716875 10.29296875 7.34375 C12 9 12 9 13 11 C10.125 10.8125 10.125 10.8125 7 10 C5.875 7.5625 5.875 7.5625 5 5 C2.98330173 3.86649466 2.98330173 3.86649466 1 3 C0.67 2.01 0.34 1.02 0 0 Z " fill="#CF516B" transform="translate(106,165)"/>
<path d="M0 0 C2.67901932 2.31881505 3.66204403 4.31814468 4.6875 7.6875 C4.93886719 8.49574219 5.19023437 9.30398437 5.44921875 10.13671875 C5.63097656 10.75160156 5.81273437 11.36648437 6 12 C5.34 12 4.68 12 4 12 C3.67 11.01 3.34 10.02 3 9 C2.34 8.67 1.68 8.34 1 8 C0.67 9.32 0.34 10.64 0 12 C-1.00007341 8.8886605 -0.87515553 7.11166412 0 4 C0 2.68 0 1.36 0 0 Z " fill="#CD3C57" transform="translate(469,224)"/>
<path d="M0 0 C0.33 0 0.66 0 1 0 C1 5.61 1 11.22 1 17 C3.97 17.33 6.94 17.66 10 18 C6.23312136 19.88343932 4.97041037 20.22057835 1 20 C-0.1482685 17.703463 -0.11561175 16.41686833 -0.09765625 13.8671875 C-0.09443359 13.06152344 -0.09121094 12.25585938 -0.08789062 11.42578125 C-0.07951172 10.58402344 -0.07113281 9.74226562 -0.0625 8.875 C-0.05798828 8.02550781 -0.05347656 7.17601562 -0.04882812 6.30078125 C-0.03702874 4.20049091 -0.01909306 2.1002367 0 0 Z " fill="#C93B59" transform="translate(73,136)"/>
<path d="M0 0 C-1.72271227 1.15551453 -3.45346917 2.29904119 -5.1875 3.4375 C-6.15042969 4.07558594 -7.11335938 4.71367187 -8.10546875 5.37109375 C-10.84977757 6.91546187 -12.90418343 7.59816641 -16 8 C-15.67 7.01 -15.34 6.02 -15 5 C-13.35 5 -11.7 5 -10 5 C-10 4.34 -10 3.68 -10 3 C-9.01 3 -8.02 3 -7 3 C-7 2.01 -7 1.02 -7 0 C-3.98968256 -0.93423645 -3.13349732 -1.04449911 0 0 Z " fill="#C9445E" transform="translate(268,466)"/>
<path d="M0 0 C-0.66 1.32 -1.32 2.64 -2 4 C-2 3.34 -2 2.68 -2 2 C-5.63 2.33 -9.26 2.66 -13 3 C-8.18773138 -1.81226862 -6.43985379 -2.63448564 0 0 Z " fill="#CE4965" transform="translate(333,403)"/>
<path d="M0 0 C2.56616632 3.84924948 2.55097676 6.4349304 3 11 C2.01 11.66 1.02 12.32 0 13 C0 11.35 0 9.7 0 8 C-0.99 8 -1.98 8 -3 8 C-3 6.68 -3 5.36 -3 4 C-2.34 3.67 -1.68 3.34 -1 3 C-0.67 2.01 -0.34 1.02 0 0 Z " fill="#CE3651" transform="translate(475,236)"/>
<path d="M0 0 C1.77049689 -0.05410687 3.54146849 -0.09284119 5.3125 -0.125 C6.29863281 -0.14820313 7.28476563 -0.17140625 8.30078125 -0.1953125 C11 0 11 0 14 2 C14 2.66 14 3.32 14 4 C14.66 4.33 15.32 4.66 16 5 C10.34979382 4.39891424 5.33835539 2.92471317 0 1 C0 0.67 0 0.34 0 0 Z " fill="#CF4963" transform="translate(223,129)"/>
<path d="M0 0 C3.3502463 3.81234923 5.16974789 7.33285711 7 12 C6.01 12.495 6.01 12.495 5 13 C5 12.34 5 11.68 5 11 C3.68 10.67 2.36 10.34 1 10 C0.67 6.7 0.34 3.4 0 0 Z " fill="#CC3452" transform="translate(306,29)"/>
<path d="M0 0 C0.66 0 1.32 0 2 0 C2 0.66 2 1.32 2 2 C1.34 2 0.68 2 0 2 C0.33 4.31 0.66 6.62 1 9 C2.32 8.67 3.64 8.34 5 8 C5.33 9.65 5.66 11.3 6 13 C1.23183926 10.74596038 1.23183926 10.74596038 -1 9 C-2.0625 5.9375 -2.0625 5.9375 -2 3 C-1.34 2.01 -0.68 1.02 0 0 Z " fill="#D05C70" transform="translate(311,410)"/>
<path d="M0 0 C1.98 0 3.96 0 6 0 C5.67 0.99 5.34 1.98 5 3 C5.33 3.99 5.66 4.98 6 6 C3.125 6.625 3.125 6.625 0 7 C-0.66 6.34 -1.32 5.68 -2 5 C-1.34 4.34 -0.68 3.68 0 3 C0 2.01 0 1.02 0 0 Z " fill="#D30629" transform="translate(404,162)"/>
<path d="M0 0 C2 2 2 2 2 5 C2.66 5 3.32 5 4 5 C4.33692785 6.60341555 4.66941093 8.20776555 5 9.8125 C5.185625 10.70582031 5.37125 11.59914063 5.5625 12.51953125 C6 15 6 15 6 18 C3.42274665 14.94627964 2.30432132 12.2945829 1.3125 8.4375 C1.06113281 7.48746094 0.80976563 6.53742188 0.55078125 5.55859375 C0 3 0 3 0 0 Z " fill="#CE5D78" transform="translate(345,269)"/>
<path d="M0 0 C1.41377341 2.63904371 2.37240135 5.07120629 3 8 C3.66 8 4.32 8 5 8 C5.33 7.34 5.66 6.68 6 6 C6.66 6.66 7.32 7.32 8 8 C7.01 8.495 7.01 8.495 6 9 C5.34444881 11.52733235 5.34444881 11.52733235 5 14 C2.47059262 10.86835277 0.55079982 7.72191958 -1 4 C-0.6875 1.625 -0.6875 1.625 0 0 Z " fill="#CB405C" transform="translate(6,242)"/>
<path d="M0 0 C0.33 0.99 0.66 1.98 1 3 C0.34 3.66 -0.32 4.32 -1 5 C-1.33 6.175625 -1.66 7.35125 -2 8.5625 C-2.33 9.696875 -2.66 10.83125 -3 12 C-3.99 12.495 -3.99 12.495 -5 13 C-5 12.34 -5 11.68 -5 11 C-5.66 11 -6.32 11 -7 11 C-5.5140084 6.40693504 -3.14985318 3.56430755 0 0 Z " fill="#CC445E" transform="translate(361,214)"/>
<path d="M0 0 C-0.99 0.33 -1.98 0.66 -3 1 C-3.69937532 2.31647119 -4.36729133 3.65022151 -5 5 C-7.6666419 6.33332095 -9.16680303 5.67102033 -12 5 C-8.77464852 1.23708994 -4.90542108 -1.63514036 0 0 Z " fill="#CD3D59" transform="translate(387,198)"/>
<path d="M0 0 C3.68266103 0.59950296 7.34543185 1.24758891 11 2 C11 2.66 11 3.32 11 4 C12.32 4.33 13.64 4.66 15 5 C11.8568669 6.57156655 9.634536 5.11705576 6.375 4.0625 C4.59222656 3.49208984 4.59222656 3.49208984 2.7734375 2.91015625 C1.85820313 2.60980469 0.94296875 2.30945313 0 2 C0 1.34 0 0.68 0 0 Z " fill="#CA4C65" transform="translate(41,281)"/>
<path d="M0 0 C6.21689926 0.32720522 11.00899274 3.52799495 16 7 C16 7.33 16 7.66 16 8 C14.35 8 12.7 8 11 8 C10.34 6.68 9.68 5.36 9 4 C7.68 4 6.36 4 5 4 C5 3.34 5 2.68 5 2 C3.35 1.67 1.7 1.34 0 1 C0 0.67 0 0.34 0 0 Z " fill="#D36079" transform="translate(150,51)"/>
<path d="M0 0 C-0.99 0 -1.98 0 -3 0 C-3 0.66 -3 1.32 -3 2 C-3.66 2 -4.32 2 -5 2 C-5.33 2.66 -5.66 3.32 -6 4 C-8.97 4 -11.94 4 -15 4 C-12.83900627 1.83900627 -11.4789582 1.28436284 -8.625 0.3125 C-7.46871094 -0.09548828 -7.46871094 -0.09548828 -6.2890625 -0.51171875 C-3.79944692 -1.04278009 -2.38446982 -0.81115526 0 0 Z " fill="#CC4A68" transform="translate(237,3)"/>
<path d="M0 0 C3 1 3 1 4.8125 3.3125 C6 6 6 6 5.1875 8.3125 C4.795625 8.869375 4.40375 9.42625 4 10 C3.34 9.01 2.68 8.02 2 7 C1.34 6.67 0.68 6.34 0 6 C0 4.02 0 2.04 0 0 Z " fill="#CD3858" transform="translate(121,180)"/>
<path d="M0 0 C5.32187227 1.21376034 10.03906272 2.72623708 15 5 C15 5.33 15 5.66 15 6 C12.36 6 9.72 6 7 6 C6.6596875 5.0409375 6.6596875 5.0409375 6.3125 4.0625 C5.14749104 1.72806339 5.14749104 1.72806339 2.375 1.25 C1.59125 1.1675 0.8075 1.085 0 1 C0 0.67 0 0.34 0 0 Z " fill="#D25771" transform="translate(85,155)"/>
<path d="M0 0 C0.33 1.32 0.66 2.64 1 4 C-1.02051387 6.80626927 -3.95641446 8.4391869 -7 10 C-7.66 9.67 -8.32 9.34 -9 9 C-6.03 6.03 -3.06 3.06 0 0 Z " fill="#C72947" transform="translate(25,168)"/>
<path d="M0 0 C0.99 0.33 1.98 0.66 3 1 C3 1.66 3 2.32 3 3 C4.65 2.67 6.3 2.34 8 2 C7.34 4.31 6.68 6.62 6 9 C2.91910327 6.22719294 1.31224548 3.93673644 0 0 Z " fill="#CC3551" transform="translate(352,290)"/>
<path d="M0 0 C0.66 0 1.32 0 2 0 C2.66 3.96 3.32 7.92 4 12 C3.34 12 2.68 12 2 12 C2 11.01 2 10.02 2 9 C1.34 9 0.68 9 0 9 C0 6.03 0 3.06 0 0 Z " fill="#CC4965" transform="translate(315,51)"/>
<path d="M0 0 C0.99 0.33 1.98 0.66 3 1 C2.38245741 2.31602523 1.75571258 3.62773556 1.125 4.9375 C0.77695312 5.66839844 0.42890625 6.39929688 0.0703125 7.15234375 C-1 9 -1 9 -3 10 C-3 7.69 -3 5.38 -3 3 C-2.34 3 -1.68 3 -1 3 C-0.67 2.01 -0.34 1.02 0 0 Z " fill="#CC415B" transform="translate(285,441)"/>
<path d="M0 0 C0.66 0 1.32 0 2 0 C2 4 2 4 -0.4375 6.625 C-1.283125 7.40875 -2.12875 8.1925 -3 9 C-3.33 9.66 -3.66 10.32 -4 11 C-4.66 11 -5.32 11 -6 11 C-4.54997977 6.89160936 -2.6020866 3.49655387 0 0 Z " fill="#CC536A" transform="translate(175,368)"/>
<path d="M0 0 C1.58560393 0.25720674 3.16845924 0.53138799 4.75 0.8125 C5.63171875 0.96332031 6.5134375 1.11414063 7.421875 1.26953125 C10.1910911 2.05414248 11.8259401 3.14595359 14 5 C13.01 5.33 12.02 5.66 11 6 C11 5.34 11 4.68 11 4 C8.03 4 5.06 4 2 4 C2 3.34 2 2.68 2 2 C1.34 1.34 0.68 0.68 0 0 Z " fill="#D05770" transform="translate(241,345)"/>
<path d="M0 0 C1.32 0.33 2.64 0.66 4 1 C2.60667426 4.36720387 1.0210714 5.9859524 -2 8 C-2 6.02 -2 4.04 -2 2 C-1.34 2 -0.68 2 0 2 C0 1.34 0 0.68 0 0 Z " fill="#D34460" transform="translate(116,262)"/>
<path d="M0 0 C0.66 0.33 1.32 0.66 2 1 C-0.34591852 3.7710688 -2.14776201 4.52059284 -5.6875 5.1875 C-6.49574219 5.34605469 -7.30398437 5.50460937 -8.13671875 5.66796875 C-9.05904297 5.83232422 -9.05904297 5.83232422 -10 6 C-7.07865822 2.81957898 -4.06268795 1.47734107 0 0 Z " fill="#CE516C" transform="translate(203,348)"/>
<path d="M0 0 C-1.76641683 0.6987693 -3.53832664 1.38366583 -5.3125 2.0625 C-6.79169922 2.63677734 -6.79169922 2.63677734 -8.30078125 3.22265625 C-11 4 -11 4 -14 3 C-12.68 2.67 -11.36 2.34 -10 2 C-10 1.34 -10 0.68 -10 0 C-6.26432828 -0.76411467 -3.65188082 -1.07174763 0 0 Z " fill="#CC4D67" transform="translate(440,321)"/>
<path d="M0 0 C0 0.66 0 1.32 0 2 C-0.66 2 -1.32 2 -2 2 C-2.33 2.99 -2.66 3.98 -3 5 C-4.84765625 5.73046875 -4.84765625 5.73046875 -7.0625 6.1875 C-7.79597656 6.34605469 -8.52945312 6.50460938 -9.28515625 6.66796875 C-10.13400391 6.83232422 -10.13400391 6.83232422 -11 7 C-4.48275862 0 -4.48275862 0 0 0 Z " fill="#CC4E66" transform="translate(37,161)"/>
<path d="M0 0 C0.33 0.66 0.66 1.32 1 2 C0.2578125 4.09375 0.2578125 4.09375 -0.875 6.5 C-1.42800781 7.69109375 -1.42800781 7.69109375 -1.9921875 8.90625 C-2.6513781 10.27573124 -3.32029254 11.64058509 -4 13 C-4.66 13 -5.32 13 -6 13 C-4.58707905 8.1725201 -2.57025846 4.2837641 0 0 Z " fill="#C74F69" transform="translate(194,31)"/>
<path d="M0 0 C0.33 0.66 0.66 1.32 1 2 C0.67 2.66 0.34 3.32 0 4 C0.66 4 1.32 4 2 4 C1.67 5.32 1.34 6.64 1 8 C-0.65 7.67 -2.3 7.34 -4 7 C-2.68 4.69 -1.36 2.38 0 0 Z " fill="#D33050" transform="translate(15,178)"/>
<path d="M0 0 C0.99 0.33 1.98 0.66 3 1 C3.33 1.99 3.66 2.98 4 4 C5.65 4.33 7.3 4.66 9 5 C8.67 5.66 8.34 6.32 8 7 C5.6875 7.25 5.6875 7.25 3 7 C1.1875 5.1875 1.1875 5.1875 0 3 C0 2.01 0 1.02 0 0 Z " fill="#C75A6F" transform="translate(146,71)"/>
<path d="M0 0 C0.33 0 0.66 0 1 0 C1 4.29 1 8.58 1 13 C0.34 13 -0.32 13 -1 13 C-2.20577428 8.05632546 -1.6290678 4.79137588 0 0 Z " fill="#C72644" transform="translate(68,402)"/>
<path d="M0 0 C6.57142857 5.14285714 6.57142857 5.14285714 8 9 C7.01 9 6.02 9 5 9 C5 8.34 5 7.68 5 7 C4.01 7 3.02 7 2 7 C1.34 4.69 0.68 2.38 0 0 Z " fill="#CE5971" transform="translate(273,361)"/>
<path d="M0 0 C0.66 0.66 1.32 1.32 2 2 C1.67028521 5.29714793 1.3773161 6.6226839 -1 9 C-3.625 9.625 -3.625 9.625 -6 10 C-6 9.34 -6 8.68 -6 8 C-5.34 8 -4.68 8 -4 8 C-4 7.34 -4 6.68 -4 6 C-2.68 6 -1.36 6 0 6 C0 4.02 0 2.04 0 0 Z " fill="#CC637A" transform="translate(84,324)"/>
<path d="M0 0 C0.66 0 1.32 0 2 0 C0.89184175 3.21365891 0.01470446 3.9914224 -3 5.75 C-6 7 -6 7 -8 7 C-7.67 6.01 -7.34 5.02 -7 4 C-6.01 4 -5.02 4 -4 4 C-4 3.34 -4 2.68 -4 2 C-2.68 2 -1.36 2 0 2 C0 1.34 0 0.68 0 0 Z " fill="#C5405C" transform="translate(448,313)"/>
<path d="M0 0 C1.70077736 2.55116604 2.5150257 4.13560251 3.3125 7 C3.51488281 7.680625 3.71726563 8.36125 3.92578125 9.0625 C3.95027344 9.701875 3.97476563 10.34125 4 11 C3.01 11.99 2.02 12.98 1 14 C0.67 9.38 0.34 4.76 0 0 Z " fill="#CB415D" transform="translate(130,194)"/>
<path d="M0 0 C1.32 0 2.64 0 4 0 C4 0.66 4 1.32 4 2 C0.04 3.98 0.04 3.98 -4 6 C-4 4.35 -4 2.7 -4 1 C-2.68 1.33 -1.36 1.66 0 2 C0 1.34 0 0.68 0 0 Z " fill="#CB455D" transform="translate(284,123)"/>
<path d="M0 0 C0.66 0 1.32 0 2 0 C0.4114658 4.28904235 -2.43127368 6.32345526 -6 9 C-6.66 9 -7.32 9 -8 9 C-8 8.34 -8 7.68 -8 7 C-7.34 7 -6.68 7 -6 7 C-6 6.34 -6 5.68 -6 5 C-5.34 5 -4.68 5 -4 5 C-4 4.34 -4 3.68 -4 3 C-3.01 3 -2.02 3 -1 3 C-0.67 2.01 -0.34 1.02 0 0 Z " fill="#C75268" transform="translate(297,114)"/>
<path d="M0 0 C0.99 0.33 1.98 0.66 3 1 C2.01 4.3 1.02 7.6 0 11 C-0.9004793 7.3980828 -1.16315639 4.67101871 -1 1 C-0.67 0.67 -0.34 0.34 0 0 Z " fill="#CF4768" transform="translate(313,85)"/>
<path d="M0 0 C2.64 0.66 5.28 1.32 8 2 C8 3.32 8 4.64 8 6 C8.66 6 9.32 6 10 6 C9.67 6.66 9.34 7.32 9 8 C7.49712782 6.85793642 5.99776716 5.71125043 4.5 4.5625 C3.6646875 3.92441406 2.829375 3.28632813 1.96875 2.62890625 C1.3190625 2.09136719 0.669375 1.55382812 0 1 C0 0.67 0 0.34 0 0 Z " fill="#C94862" transform="translate(179,458)"/>
<path d="M0 0 C1.65 0 3.3 0 5 0 C5.33 1.65 5.66 3.3 6 5 C6.99 5.33 7.98 5.66 9 6 C8.67 6.66 8.34 7.32 8 8 C6.66372225 6.85760183 5.33104612 5.71098945 4 4.5625 C3.2575 3.92441406 2.515 3.28632813 1.75 2.62890625 C1.1725 2.09136719 0.595 1.55382812 0 1 C0 0.67 0 0.34 0 0 Z " fill="#C8405B" transform="translate(21,268)"/>
<path d="M0 0 C1.9375 0.8125 1.9375 0.8125 4 2 C4.33 2.99 4.66 3.98 5 5 C3.0625 8.1875 3.0625 8.1875 1 11 C0 8 0 8 0.5 6.0625 C1.07702481 3.68227266 0.74022853 2.30293321 0 0 Z " fill="#D03B5A" transform="translate(121,251)"/>
<path d="M0 0 C0.66 0 1.32 0 2 0 C1.25 6.625 1.25 6.625 -1 10 C-2 9 -2 9 -2.1875 6.125 C-2 3 -2 3 0 0 Z " fill="#CE3E5C" transform="translate(148,52)"/>
<path d="M0 0 C3.00617269 3.00617269 2.59585316 5.82381598 3 10 C2.01 10 1.02 10 0 10 C0 6.7 0 3.4 0 0 Z " fill="#CC4860" transform="translate(291,389)"/>
<path d="M0 0 C0.66 0.33 1.32 0.66 2 1 C0.8125 3.4375 0.8125 3.4375 -1 6 C-3.6875 6.8125 -3.6875 6.8125 -6 7 C-4.02 4.69 -2.04 2.38 0 0 Z " fill="#CD4F68" transform="translate(368,207)"/>
<path d="M0 0 C3.77545388 1.09068668 6.47043472 1.9083091 9 5 C6.50907189 6.24546405 5.58919267 5.7767578 3 5 C3 4.34 3 3.68 3 3 C2.01 2.67 1.02 2.34 0 2 C0 1.34 0 0.68 0 0 Z " fill="#C94860" transform="translate(440,198)"/>
<path d="M0 0 C-1.90401138 1.90401138 -3.33425686 2.93520439 -6.046875 3.19921875 C-8.03233273 3.1886578 -10.0169914 3.09915043 -12 3 C-8.61613364 -0.38386636 -4.56431325 -1.75550509 0 0 Z " fill="#D05B74" transform="translate(53,156)"/>
<path d="M0 0 C0.33 0 0.66 0 1 0 C1.36666667 5.5 1.36666667 5.5 -0.375 7.875 C-2 9 -2 9 -4 9 C-2.94124926 5.59687262 -1.99097846 2.98646769 0 0 Z " fill="#D03554" transform="translate(272,456)"/>
<path d="M0 0 C1 2 1 2 0.22265625 4.3828125 C-0.16019531 5.28773438 -0.54304688 6.19265625 -0.9375 7.125 C-1.31777344 8.03507812 -1.69804687 8.94515625 -2.08984375 9.8828125 C-2.39019531 10.58148438 -2.69054687 11.28015625 -3 12 C-4.15941038 8.52176885 -3.70820884 6.54104422 -3 3 C-2.34 3 -1.68 3 -1 3 C-0.67 2.01 -0.34 1.02 0 0 Z " fill="#CE5A71" transform="translate(292,429)"/>
<path d="M0 0 C1.0625 1.875 1.0625 1.875 2 4 C1.67 4.66 1.34 5.32 1 6 C-1.64 6 -4.28 6 -7 6 C-6.34 5.01 -5.68 4.02 -5 3 C-3.35 3.33 -1.7 3.66 0 4 C0 2.68 0 1.36 0 0 Z " fill="#CA2144" transform="translate(415,414)"/>
<path d="M0 0 C2.88437779 1.29299694 4.87219421 2.65941363 7 5 C4.69 5 2.38 5 0 5 C0 3.35 0 1.7 0 0 Z " fill="#CB3F5B" transform="translate(266,356)"/>
<path d="M0 0 C2.31 0.33 4.62 0.66 7 1 C7 1.66 7 2.32 7 3 C8.32 3.33 9.64 3.66 11 4 C9.4375 4.75 9.4375 4.75 7 5 C4.49713591 3.86915563 2.32992278 2.47860484 0 1 C0 0.67 0 0.34 0 0 Z " fill="#CA5167" transform="translate(30,276)"/>
<path d="M0 0 C3 3.625 3 3.625 3 7 C3.66 7 4.32 7 5 7 C4.67 7.99 4.34 8.98 4 10 C0.9083091 7.47043472 0.09068668 4.77545388 -1 1 C-0.67 0.67 -0.34 0.34 0 0 Z " fill="#CF546E" transform="translate(190,93)"/>
<path d="M0 0 C0.66 0 1.32 0 2 0 C2 0.66 2 1.32 2 2 C1.34 2 0.68 2 0 2 C-0.33 3.32 -0.66 4.64 -1 6 C-2.65 6 -4.3 6 -6 6 C-4 4 -2 2 0 0 Z " fill="#CE4F68" transform="translate(188,356)"/>
<path d="M0 0 C0.66 0.33 1.32 0.66 2 1 C-0.475 5.455 -0.475 5.455 -3 10 C-3.33 10 -3.66 10 -4 10 C-4 8.35 -4 6.7 -4 5 C-3.34 5 -2.68 5 -2 5 C-2 4.01 -2 3.02 -2 2 C-1.34 2 -0.68 2 0 2 C0 1.34 0 0.68 0 0 Z " fill="#CD5C72" transform="translate(471,288)"/>
<path d="M0 0 C2.475 0.495 2.475 0.495 5 1 C5.33 2.98 5.66 4.96 6 7 C1.125 3.375 1.125 3.375 0 0 Z " fill="#D14664" transform="translate(13,259)"/>
<path d="M0 0 C1.98 0.495 1.98 0.495 4 1 C3.34 1.66 2.68 2.32 2 3 C1.60235737 4.98821313 1.26224651 6.98944339 1 9 C0.34 9 -0.32 9 -1 9 C-0.67 6.03 -0.34 3.06 0 0 Z " fill="#C60F2D" transform="translate(4,229)"/>
<path d="M0 0 C3.53600465 1.91135386 5.78972846 3.62642766 8 7 C5 7 5 7 2 5 C2 4.01 2 3.02 2 2 C1.34 2 0.68 2 0 2 C0 1.34 0 0.68 0 0 Z " fill="#CD596F" transform="translate(453,206)"/>
<path d="M0 0 C-0.66 1.32 -1.32 2.64 -2 4 C-4.475 3.01 -4.475 3.01 -7 2 C-7 1.34 -7 0.68 -7 0 C-3.98968256 -0.93423645 -3.13349732 -1.04449911 0 0 Z " fill="#CD2E49" transform="translate(221,123)"/>
<path d="M0 0 C-1.09068668 3.77545388 -1.9083091 6.47043472 -5 9 C-5.36666667 3.5 -5.36666667 3.5 -3.625 1.125 C-2 0 -2 0 0 0 Z " fill="#CE4B65" transform="translate(312,96)"/>
<path d="M0 0 C3.72114571 2.31537955 6.61229661 4.28579473 9 8 C7.35 7.67 5.7 7.34 4 7 C4 6.01 4 5.02 4 4 C2.68 3.34 1.36 2.68 0 2 C0 1.34 0 0.68 0 0 Z " fill="#C6425E" transform="translate(289,12)"/>
<path d="M0 0 C0.66 0 1.32 0 2 0 C2 2.64 2 5.28 2 8 C1.01 7.34 0.02 6.68 -1 6 C-0.67 4.02 -0.34 2.04 0 0 Z " fill="#C82849" transform="translate(347,240)"/>
<path d="M0 0 C4.875 3.625 4.875 3.625 6 7 C4.35 6.67 2.7 6.34 1 6 C0.67 4.02 0.34 2.04 0 0 Z " fill="#C83D58" transform="translate(300,22)"/>
<path d="M0 0 C-0.66 0.66 -1.32 1.32 -2 2 C-3.32 2 -4.64 2 -6 2 C-6 1.34 -6 0.68 -6 0 C-6.99 -0.33 -7.98 -0.66 -9 -1 C-5.79937313 -2.60031344 -3.27728194 -1.03173691 0 0 Z " fill="#D0455F" transform="translate(440,197)"/>
<path d="M0 0 C0 0.66 0 1.32 0 2 C-2.60582371 2.93065133 -3.64198224 3.14917407 -6.25 2.0625 C-6.8275 1.711875 -7.405 1.36125 -8 1 C-4.93251126 -0.86240388 -3.40254489 -1.2151946 0 0 Z " fill="#D1526F" transform="translate(410,168)"/>
<path d="M0 0 C1.32 0 2.64 0 4 0 C4.33 1.65 4.66 3.3 5 5 C4.01 5.495 4.01 5.495 3 6 C0 2.25 0 2.25 0 0 Z " fill="#CB4761" transform="translate(196,106)"/>
<path d="M0 0 C0.33 1.32 0.66 2.64 1 4 C0.01 4 -0.98 4 -2 4 C-2.33 5.32 -2.66 6.64 -3 8 C-3.66 8 -4.32 8 -5 8 C-3.8141763 4.62496331 -2.72426311 2.35277269 0 0 Z " fill="#CD5E75" transform="translate(200,23)"/>
</svg>
