<?xml version="1.0" standalone="no"?>
<!DOCTYPE svg PUBLIC "-//W3C//DTD SVG 20010904//EN"
 "http://www.w3.org/TR/2001/REC-SVG-20010904/DTD/svg10.dtd">
<svg version="1.0" xmlns="http://www.w3.org/2000/svg"
 width="574.000000pt" height="574.000000pt" viewBox="0 0 574.000000 574.000000"
 preserveAspectRatio="xMidYMid meet">
<metadata>
Created by potrace 1.14, written by Peter Selinger 2001-2017
</metadata>
<g transform="translate(0.000000,574.000000) scale(0.100000,-0.100000)"
fill="#000000" stroke="none">
<path d="M2974 4996 c-97 -32 -223 -166 -283 -301 -7 -16 -17 -37 -22 -45 -5
-8 -13 -25 -18 -37 -17 -37 -64 -74 -91 -70 -14 1 -63 24 -110 49 -130 71
-156 79 -273 83 -83 3 -167 -20 -206 -56 -11 -11 -24 -19 -28 -19 -15 -1 -72
-86 -88 -129 -17 -50 -13 -128 10 -183 8 -21 15 -39 15 -42 0 -2 -25 -19 -56
-38 -31 -18 -63 -38 -72 -43 -54 -33 -73 -39 -132 -42 -183 -8 -230 -44 -230
-174 0 -32 -3 -59 -7 -59 -5 0 -32 -23 -60 -50 -29 -28 -53 -48 -53 -45 0 3
-12 -8 -27 -25 -27 -30 -29 -31 -58 -16 -64 31 -116 21 -180 -35 -68 -60 -114
-158 -119 -250 -2 -42 -7 -51 -63 -107 -74 -73 -126 -171 -144 -273 l-12 -70
-74 -36 c-118 -57 -178 -141 -178 -248 0 -56 3 -71 21 -133 4 -13 3 -22 -2
-21 -23 6 -134 -16 -171 -33 -79 -37 -75 -91 15 -250 23 -41 20 -51 -13 -38
-22 8 -71 7 -118 -3 -33 -6 -89 -59 -108 -101 -26 -57 -24 -130 5 -191 28 -61
48 -78 152 -138 45 -26 89 -56 99 -67 31 -34 23 -91 -24 -171 -22 -39 -41 -76
-41 -80 0 -5 -4 -9 -9 -9 -12 0 -31 -80 -31 -129 0 -143 156 -306 315 -328 25
-3 55 -15 68 -25 67 -60 108 -89 163 -117 34 -17 65 -31 69 -31 4 0 21 -11 37
-26 58 -48 172 -95 273 -111 54 -9 216 -9 295 0 77 9 313 63 341 77 10 6 19 8
19 5 0 -3 9 -1 21 5 11 6 28 13 37 15 31 6 197 68 206 76 6 5 16 9 23 9 7 0
36 11 65 24 29 14 82 37 118 51 36 15 69 31 74 36 6 5 18 9 28 9 10 0 18 4 18
10 0 5 4 9 8 7 14 -4 82 26 82 37 0 5 3 7 6 3 6 -5 37 7 134 51 25 11 135 59
245 106 110 48 209 91 220 96 17 8 68 29 85 35 3 1 22 9 43 18 92 41 113 50
122 52 6 2 35 14 65 28 30 14 116 51 190 82 74 31 149 63 167 71 17 8 34 14
37 14 3 0 29 11 58 24 29 14 118 52 198 85 189 78 204 84 210 86 6 2 -1 -1
198 82 85 34 158 63 164 63 6 0 19 7 28 15 9 8 25 16 36 18 23 5 16 2 239 95
280 117 385 173 454 242 33 32 71 78 85 102 33 57 53 148 50 228 -2 36 -4 74
-4 85 -2 63 -65 246 -121 351 l-28 55 33 52 c45 70 66 136 66 204 0 61 -27
173 -41 173 -5 0 -9 6 -9 14 0 25 -73 97 -124 123 -27 14 -72 27 -100 30 -28
3 -53 7 -54 9 -2 1 2 20 9 41 7 21 14 43 15 48 32 126 -8 234 -101 279 -74 35
-115 18 -177 -72 -16 -24 -32 -41 -35 -38 -3 2 -6 29 -7 58 -8 160 -52 267
-153 367 -106 105 -214 149 -364 149 -45 0 -103 -6 -128 -14 -25 -8 -51 -14
-57 -14 -7 0 -24 37 -39 83 -65 203 -193 336 -325 337 -93 0 -141 -27 -206
-115 -42 -58 -74 -83 -103 -80 -38 3 -92 29 -122 58 -15 14 -30 23 -33 20 -3
-4 -6 -2 -6 4 0 19 -115 90 -165 102 -55 13 -87 12 -131 -3z"/>
<path d="M465 3868 c-85 -57 -231 -208 -308 -321 -29 -43 -32 -53 -18 -62 10
-5 51 32 51 46 0 4 6 14 13 21 7 7 34 40 59 73 53 68 131 144 212 205 31 24
56 46 56 51 0 20 -21 16 -65 -13z"/>
<path d="M817 3861 c-70 -36 -170 -102 -224 -147 -12 -11 -30 -26 -40 -35 -19
-16 -115 -120 -146 -158 -42 -52 -150 -236 -138 -236 1 0 -5 -13 -13 -30 -18
-34 -6 -56 19 -35 8 7 15 17 15 22 0 18 60 130 102 192 57 84 54 80 153 180
103 104 178 160 287 213 72 35 91 54 69 67 -4 3 -43 -12 -84 -33z"/>
<path d="M5585 2263 c-52 -39 -131 -94 -183 -128 -9 -5 -25 -18 -36 -27 -11
-10 -23 -18 -27 -18 -4 0 -36 -18 -70 -40 -35 -22 -80 -47 -99 -57 -19 -9 -37
-20 -40 -23 -10 -11 -216 -110 -339 -163 -120 -52 -157 -77 -111 -77 22 0 107
34 235 94 39 18 80 36 93 40 12 4 22 12 22 17 0 5 6 9 14 9 8 0 42 16 76 35
34 19 63 35 65 35 10 0 252 154 262 166 6 9 14 14 18 13 12 -3 195 135 195
148 0 25 -17 20 -75 -24z"/>
<path d="M5600 1988 c-30 -27 -78 -65 -106 -83 -52 -35 -204 -115 -227 -119
-63 -14 -137 -42 -137 -53 0 -44 232 42 380 140 69 46 169 131 169 143 2 28
-28 18 -79 -28z"/>
</g>
</svg>
